PathFileType	4	(X/Y/Z)	..\data\2014014\dynamic\2014014_C4_05.trc
DataRate	CameraRate	NumFrames	NumMarkers	Units	OrigDataRate	OrigDataStartFrame	OrigNumFrames
100.000000	100.000000	4	52	mm	100.000000	45	180
Frame#	Time	L_IAS			L_IPS			R_IPS			R_IAS			L_FTC			L_FLE			L_FME			L_FAX			L_TTC			L_FAL			L_TAM			L_FCC			L_FM1			L_FM2			L_FM5			R_FTC			R_FLE			R_FME			R_FAX			R_TTC			R_FAL			R_TAM			R_FCC			R_FM1			R_FM2			R_FM5			CV7			TV10			SXS			SJN			L_SIA			L_SRS			L_SAA			L_SAE			L_HLE			L_HME			L_UOA			L_RSP			L_UHE			L_HM2			L_HM5			R_SIA			R_SRS			R_SAA			R_SAE			R_HLE			R_HME			R_UOA			R_RSP			R_UHE			R_HM2			R_HM5			
		X1	Y1	Z1	X2	Y2	Z2	X3	Y3	Z3	X4	Y4	Z4	X5	Y5	Z5	X6	Y6	Z6	X7	Y7	Z7	X8	Y8	Z8	X9	Y9	Z9	X10	Y10	Z10	X11	Y11	Z11	X12	Y12	Z12	X13	Y13	Z13	X14	Y14	Z14	X15	Y15	Z15	X16	Y16	Z16	X17	Y17	Z17	X18	Y18	Z18	X19	Y19	Z19	X20	Y20	Z20	X21	Y21	Z21	X22	Y22	Z22	X23	Y23	Z23	X24	Y24	Z24	X25	Y25	Z25	X26	Y26	Z26	X27	Y27	Z27	X28	Y28	Z28	X29	Y29	Z29	X30	Y30	Z30	X31	Y31	Z31	X32	Y32	Z32	X33	Y33	Z33	X34	Y34	Z34	X35	Y35	Z35	X36	Y36	Z36	X37	Y37	Z37	X38	Y38	Z38	X39	Y39	Z39	X40	Y40	Z40	X41	Y41	Z41	X42	Y42	Z42	X43	Y43	Z43	X44	Y44	Z44	X45	Y45	Z45	X46	Y46	Z46	X47	Y47	Z47	X48	Y48	Z48	X49	Y49	Z49	X50	Y50	Z50	X51	Y51	Z51	X52	Y52	Z52	

46	0.45	-708.2735595703126	995.0486450195315	88.77391052246087	-921.2066650390627	1013.519104003906	161.4688415527343	-928.5366210937502	1006.800964355469	264.5265197753906	-727.9860839843751	997.2776489257815	342.3101196289062	-795.362243652344	897.6668701171877	21.76931762695303	-863.967712402344	498.618865966797	89.88928222656241	-871.9493408203127	493.7864074707032	227.4163055419921	-891.615661621094	439.3531799316407	88.37892913818349	-826.042907714844	420.2854309082032	142.6000823974609	-943.0352172851565	68.89161682128908	120.299087524414	-923.4580078125002	98.39288330078128	217.502212524414	-1000.032775878906	24.3438949584961	173.9048614501952	-800.1466064453127	17.50921249389649	214.9073028564453	-780.648620605469	36.08308029174805	157.3040161132812	-834.7113037109377	18.47322273254395	96.26667785644524	-778.158874511719	898.8267211914065	406.1605834960938	-639.6463012695314	508.2950744628907	378.9468994140625	-599.5172119140626	514.4341430664064	253.7722778320312	-672.0443725585939	458.8693237304689	376.4884948730469	-598.6531982421876	441.207489013672	337.9932250976562	-790.7920532226565	109.768539428711	322.6203613281249	-732.7616577148439	132.3602905273438	236.9824066162109	-824.782897949219	85.13027191162111	248.3094635009765	-627.3598022460939	37.6125602722168	269.9202575683594	-641.5206909179689	54.5607261657715	323.5442504882812	-692.3024902343751	42.32362365722657	364.7223815917969	-882.6342773437502	1536.396484375	212.0074157714843	-975.8071289062502	1286.564208984375	199.0478973388671	-702.4685668945314	1262.331665039063	223.5004425048828	-758.2413330078126	1442.468872070313	226.9868621826172	-981.9208984375002	1319.69970703125	86.41202545166006	-944.017517089844	1460.990478515625	90.80719757080068	-895.6832275390627	1460.654174804688	31.45953369140615	-843.5886230468752	1457.728393554688	10.55865573883047	-809.5905761718752	1121.796508789063	-92.7043914794923	-865.395690917969	1104.192626953125	-17.65169906616222	-852.007019042969	1093.087890625	-75.61620330810558	-667.3492431640626	900.8270263671877	-17.35658264160165	-724.5355834960939	879.9902343750002	-83.98834991455088	-612.0966796875001	827.747253417969	-27.68134880065926	-704.3818359375001	800.1055297851565	-85.64070129394541	-1002.959228515625	1311.712524414063	315.3083496093749	-954.2120361328127	1455.197143554688	335.5547180175781	-917.2034301757815	1440.154663085938	406.6193542480469	-871.2073974609377	1437.65234375	428.9927368164062	-899.4123535156253	1100.803466796875	505.3488464355469	-912.6292724609377	1088.341430664063	402.6203918457031	-938.0042724609378	1080.314331054688	469.2395935058594	-790.0198974609377	854.3189086914065	459.0806884765625	-863.0531005859378	851.9536743164065	516.6942749023438	-758.288024902344	762.7390136718751	483.2910461425781	-868.5569458007816	753.4703369140626	505.9336853027344	
47	0.46	-697.7334594726564	993.1295166015627	89.02830505371087	-910.7122192382815	1012.330749511719	161.7151336669921	-918.1595458984377	1005.713317871094	264.6428527832031	-717.4412841796876	996.1353759765627	342.5375976562499	-786.1943359375002	896.058044433594	21.95028495788565	-859.7894287109377	498.3858642578126	90.3847122192382	-867.449401855469	493.5573120117189	228.0338592529296	-888.0137329101565	439.4353637695314	88.93290710449209	-822.4954223632815	419.4384765625001	142.8645782470702	-942.9517211914065	69.22494506835939	120.7230758666991	-922.528991699219	98.72003936767581	217.8214111328124	-999.9505615234377	24.69710922241212	174.5505828857421	-800.0686645507815	17.43366241455078	214.8979187011718	-780.5479736328127	35.95906829833985	157.2229766845703	-834.717468261719	18.44601058959961	96.27042388916009	-767.5687866210939	897.813659667969	406.4850158691406	-629.1221923828126	506.7895812988282	377.1115417480469	-589.0266113281251	513.5583496093751	252.3754272460937	-659.1065063476564	455.8223571777345	374.7735595703125	-584.6205444335939	441.5842285156251	337.5094604492188	-755.0257568359376	99.24857330322268	323.3808898925781	-697.1647949218751	124.9401473999024	238.4130401611328	-785.8966064453127	71.94483184814455	249.0300598144531	-586.6192626953126	37.27719116210938	273.4354553222656	-602.3939819335939	53.53474044799806	326.7916259765625	-652.9179687500001	38.37586975097657	367.4339294433594	-871.9600830078127	1535.075439453125	212.5142059326171	-965.0466308593752	1285.303833007813	198.4943084716796	-691.7880249023439	1260.959228515625	224.0849304199218	-747.6340942382814	1441.054931640625	227.8670501708984	-970.5590820312502	1318.605346679688	85.66542816162099	-932.6854248046877	1460.177856445313	90.61680603027334	-883.9895019531252	1459.86572265625	31.62670707702627	-831.7717895507815	1457.022094726563	10.99900150299062	-796.603698730469	1121.501098632813	-93.43350219726574	-852.954040527344	1103.35205078125	-18.90274238586436	-838.9207763671877	1092.2421875	-76.77073669433605	-651.5419921875001	903.1661376953127	-15.61945629119881	-707.8380126953126	881.0029296875002	-82.91923522949229	-595.2470092773439	830.9436035156252	-24.98794555664071	-686.1338500976564	801.4060668945315	-83.8029785156251	-992.924987792969	1309.8359375	314.0902709960937	-944.2817382812502	1453.298828125	335.2330627441406	-907.843688964844	1438.018310546875	406.4965209960938	-862.0017700195315	1435.464721679688	429.18408203125	-891.3696289062503	1098.45751953125	504.5379638671875	-903.339294433594	1086.1826171875	401.4422607421875	-929.5377197265628	1077.98291015625	467.9586791992188	-781.0288085937502	852.1629638671877	458.7750244140625	-854.8557739257816	849.538024902344	515.4073486328125	-749.3593750000002	760.6904296875001	483.5220031738281	-859.9671630859378	751.0726318359376	504.2492370605469	
48	0.47	-687.1199951171876	991.2120361328127	89.36519622802727	-900.1653442382815	1011.068725585938	162.0180511474609	-907.7178955078127	1004.4951171875	264.8120117187499	-706.8759155273439	994.8257446289065	342.8677978515624	-777.049499511719	894.3977661132815	22.08872222900381	-855.3489379882815	498.1622619628907	90.89464569091788	-862.6165161132815	493.310028076172	228.6063842773437	-884.1495361328127	439.5474548339845	89.47786712646474	-818.6917114257815	418.5945739746095	143.0994110107421	-942.819763183594	69.63357543945314	121.154312133789	-921.547546386719	99.11672973632815	218.1314544677734	-999.8120727539065	25.16269683837891	175.2241058349609	-800.0452880859377	17.33800506591797	214.9130096435547	-780.4781494140627	35.83689117431641	157.1586303710937	-834.7529296875002	18.4265422821045	96.29766845703118	-757.2048339843751	896.474304199219	406.7772827148438	-619.3703002929689	504.8509826660157	375.044677734375	-579.1934814453126	512.3165893554689	250.7313537597656	-646.7248535156251	452.5828247070314	372.9502868652344	-571.3247070312501	441.7810058593751	336.8516845703125	-719.1035766601564	89.93225097656251	324.6108093261718	-661.7029418945314	118.6230926513672	240.2486267089843	-746.8025512695314	59.98193740844728	250.3209075927734	-546.4425659179689	38.36168670654298	277.0898742675781	-563.6962890625001	53.80902481079103	330.2018737792969	-613.7113037109376	35.75561904907227	370.43359375	-861.219909667969	1533.677124023438	213.1143798828124	-954.194519042969	1284.004516601563	198.1005859374999	-681.0497436523439	1259.50048828125	224.7492370605468	-736.9538574218751	1439.559692382813	228.8251495361328	-959.1608886718752	1317.417724609375	85.03519439697256	-921.2958984375002	1459.306030273438	90.56780242919912	-872.245544433594	1458.989990234375	31.89216613769521	-819.906677246094	1456.224487304688	11.54071140289297	-783.674011230469	1121.139526367188	-94.04853057861339	-840.568786621094	1102.4130859375	-19.99302101135265	-825.8930664062502	1091.34423828125	-77.78406524658214	-636.0464477539064	905.3245849609377	-13.8076124191285	-691.3929443359376	881.9449462890627	-81.73741912841807	-578.7785644531251	833.9759521484377	-22.24784851074226	-668.2435302734376	802.625427246094	-81.91282653808604	-982.7988281250002	1307.92041015625	313.0159606933593	-934.2471923828127	1451.346435546875	335.0251159667968	-898.3648071289065	1435.829711914063	406.4746704101562	-852.6797485351565	1433.222045898438	429.4654541015625	-883.1620483398441	1096.042602539063	503.7611083984375	-893.9441528320315	1083.979736328125	400.3580932617188	-920.9159545898441	1075.606201171875	466.7536010742188	-771.953796386719	849.9323730468752	458.4606628417969	-846.4999389648441	847.0671997070315	514.1735229492188	-740.3448486328127	758.5670776367189	483.7235717773438	-851.2323608398441	748.6252441406251	502.6824340820312	
49	0.48	-676.4392700195314	989.3189086914065	89.76795959472649	-889.5593261718752	1009.743225097656	162.3866577148437	-897.1989746093752	1003.153869628906	265.0411071777343	-696.2780761718751	993.3696899414065	343.2923889160156	-767.8903198242189	892.7109985351565	22.19330787658683	-850.6129150390627	497.9507751464845	91.41082000732413	-857.4062500000002	493.045867919922	229.1263732910156	-879.9956054687502	439.6921691894532	90.00656890869131	-814.6018676757815	417.7654418945314	143.2962188720702	-942.632263183594	70.1400604248047	121.5772171020507	-920.5222778320315	99.59222412109378	218.4275970458984	-999.6118164062502	25.77507972717286	175.911163330078	-800.0721435546877	17.24027442932129	214.9508972167968	-780.4414062500002	35.72161102294923	157.1132049560546	-834.8216552734377	18.42028427124024	96.34892272949212	-747.0311279296876	894.839538574219	407.0515441894531	-610.3032226562501	502.5542907714845	372.7435607910156	-569.9577636718751	510.7965698242189	248.8165283203125	-634.8487548828126	449.2425537109376	371.0169677734375	-558.7183227539064	441.8448181152345	335.9614562988281	-683.3488769531251	81.97213745117189	326.2808532714844	-626.7306518554689	113.5019226074219	242.4234313964843	-707.9188842773439	49.42469406127931	252.1483764648437	-507.1963195800783	40.86624145507813	280.7763061523438	-525.7588500976564	55.41856765747072	333.6748962402344	-575.0097656250001	34.5496940612793	373.6429138183594	-850.4155273437502	1532.223876953125	213.8139343261718	-943.2524414062502	1282.679809570313	197.8717498779296	-670.2546386718751	1257.98046875	225.4884185791015	-726.2013549804689	1438.007202148438	229.8589324951172	-947.731384277344	1316.160888671875	84.53553771972646	-909.860534667969	1458.385986328125	90.67038726806631	-860.4666137695315	1458.050903320313	32.26458740234365	-808.0110473632815	1455.361206054688	12.18779945373526	-770.7977294921877	1120.740112304688	-94.53017425537121	-828.234069824219	1101.409057617188	-20.89671707153331	-812.9279785156252	1090.419067382813	-78.63122558593761	-620.8842773437501	907.2923583984377	-11.93414306640633	-675.2168579101564	882.8229980468752	-80.44568634033213	-562.6996459960939	836.8264160156252	-19.4835453033448	-650.7461547851564	803.7678833007815	-79.99246215820322	-972.5745849609377	1306.00048828125	312.1168518066406	-924.0977783203127	1449.368774414063	334.9461364746093	-888.7481689453127	1433.620483398438	406.5660400390625	-843.218444824219	1430.95556640625	429.8452453613281	-874.7769775390628	1093.590209960938	503.0267333984375	-884.4447021484377	1081.768188476563	399.3800659179688	-912.1287231445316	1073.219604492188	465.6336669921875	-762.7951049804689	847.657165527344	458.1331787109375	-837.9824829101566	844.5725097656252	512.996337890625	-731.248229980469	756.3931274414064	483.8756408691406	-842.3608398437503	746.1580200195314	501.2310180664062	
